# AST/ASF file generated using VICON BodyLanguage
# -----------------------------------------------
:version 1.10
:name VICON
:units
  mass 1.0
  length 0.45
  angle deg
:documentation
   .ast/.asf automatically generated from VICON data using
   VICON BodyBuilder and BodyLanguage model FoxedUp or BRILLIANT.MOD
:root
   order TX TY TZ RX RY RZ
   axis XYZ
   position 0 0 0  
   orientation 0 0 0 
:bonedata
  begin
     id 1 
     name lhipjoint
     direction 0.547975 -0.797114 0.253638 
     length 2.36201 
     axis 0 0 0  XYZ
  end
  begin
     id 2 
     name lfemur
     direction 0.34202 -0.939693 0  
     length 7.69075  
     axis 0 0 20  XYZ
    dof rx ry rz
    limits (-160.0 20.0)
           (-70.0 70.0)
           (-60.0 70.0)
  end
  begin
     id 3 
     name ltibia
     direction 0.34202 -0.939693 0   
     length 7.91399   
     axis 0 0 20   XYZ
    dof rx
    limits (-10.0 170.0)
  end
  begin
     id 4 
     name lfoot
     direction 0.0705293 -0.193778 0.978507   
     length 2.13618   
     axis -90 7.62852e-016 20   XYZ
    dof rx rz
    limits (-45.0 90.0)
           (-70.0 20.0)
  end
  begin
     id 5 
     name ltoes
     direction 1.53592e-011 -4.21925e-011 1   
     length 1.07518   
     axis -90 7.62852e-016 20   XYZ
    dof rx
    limits (-90.0 20.0)
  end
  begin
     id 6 
     name rhipjoint
     direction -0.57 -0.782963 0.249136   
     length 2.4047  
     axis 0 0 0  XYZ 
  end
  begin
     id 7 
     name rfemur
     direction -0.34202 -0.939693 0   
     length 7.51486   
     axis 0 0 -20   XYZ
    dof rx ry rz
    limits (-160.0 20.0)
           (-70.0 70.0)
           (-70.0 60.0)
  end
  begin
     id 8 
     name rtibia
     direction -0.34202 -0.939693 0   
     length 8.08317   
     axis 0 0 -20   XYZ
    dof rx
    limits (-10.0 170.0)
 end
 begin
     id 9 
     name rfoot
     direction -0.104954 -0.281256 0.953876   
     length 2.30343  
     axis -90 -7.62852e-016 -20   XYZ
    dof rx rz
    limits (-45.0 90.0)
           (-20.0 70.0)
  end
  begin
     id 10 
     name rtoes
     direction -1.53556e-011 -4.21922e-011 1   
     length 1.14803   
     axis -90 -7.62852e-016 -20   XYZ
    dof rx
    limits (-90.0 20.0)
  end
  begin
     id 11 
     name lowerback
     direction -0.0152855 0.99353 -0.11254   
     length 2.05311   
     axis 0 0 0   XYZ
    dof rx ry rz
    limits (-20.0 45.0)
           (-30.0 30.0)
           (-30.0 30.0)
  end
  begin
     id 12 
     name upperback
     direction -0.00157509 0.999443 -0.033332   
     length 2.06353   
     axis 0 0 0   XYZ
    dof rx ry rz
    limits (-20.0 45.0)
           (-30.0 30.0)
           (-30.0 30.0)
  end
  begin
     id 13 
     name thorax
     direction 0.00577788 0.999804 0.0189484   
     length 2.08472   
     axis 0 0 0   XYZ
    dof rx ry rz
    limits (-20.0 45.0)
           (-30.0 30.0)
           (-30.0 30.0)
  end
  begin
     id 14 
     name lowerneck
     direction -1.09301e-005 0.994719 0.10264   
     length 1.76249   
     axis 0 0 0   XYZ
    dof rx ry rz
    limits (-20.0 45.0)
           (-30.0 30.0)
           (-30.0 30.0)
  end
  begin
     id 15 
     name upperneck
     direction 0.0495018 0.988526 -0.142706   
     length 1.77897   
     axis 0 0 0   XYZ
    dof rx ry rz
    limits (-20.0 45.0)
           (-30.0 30.0)
           (-30.0 30.0)
  end
  begin
     id 16
     name head
     direction 0.0142736 0.998114 -0.0597101  
     length 1.78934  
     axis 0 0 0   XYZ
    dof rx ry rz
    limits (-20.0 45.0)
           (-30.0 30.0)
           (-30.0 30.0)
  end
  begin
     id 17 
     name lclavicle
     direction 0.918111 0.396107 -0.0130883  
     length 3.37276  
     axis 0 0 0   XYZ
    dof ry rz
    limits (-20.0 10.0)
           (0.0 20.0)
  end
  begin
     id 18 
     name lhumerus
     direction 1 -4.48975e-011 -3.26108e-027   
     length 5.34298   
     axis 180 -30 -90   XYZ
    dof rx ry rz
    limits (-60.0 90.0)
           (-90.0 90.0)
           (-90.0 90.0)
  end
  begin
     id 19
     name lradius
     direction 1 -4.48964e-011 -8.84413e-028   
     length 3.67262   
     axis 180 -30 -90   XYZ
    dof rx
    limits (-10.0 170.0)
  end
  begin
     id 20
     name lwrist
     direction 1 -4.48991e-011 -1.24264e-027   
     length 1.83631   
     axis -2.17013e-015 90 90   XYZ
    dof ry
    limits (-180.0 0.0)
 end
  begin
     id 21 
     name lhand
     direction 1 -4.48855e-011 -2.48528e-027   
     length 0.599298   
     axis 1.58582e-015 90 90   XYZ
    dof rx rz
    limits (-90.0 90.0)
           (-45.0 45.0)
  end
  begin
     id 22 
     name lfingers
     direction 1 -4.48811e-011 -4.97056e-027   
     length 0.48317   
     axis 3.17164e-015 90 90   XYZ
    dof rx
    limits (0.0 90.0)
  end
  begin
     id 23
     name lthumb
     direction 0.707107 -6.34882e-011 0.707107   
     length 0.693738   
     axis -90 45 2.85299e-015   XYZ
    dof rx rz
    limits (-45.0 45.0)
           (-45.0 45.0)
  end
  begin
     id 24 
     name rclavicle
     direction -0.920511 0.384752 -0.0680135   
     length 3.43787  
     axis 0 0 0   XYZ 
    dof ry rz
    limits (-10.0 20.0)
           (-20.0 0.0)
  end
  begin
     id 25 
     name rhumerus
     direction -0.999976 -0.00330524 0.00603274  
     length 5.5498   
     axis 180 30 90   XYZ
    dof rx ry rz
    limits (-90.0 60.0)
           (-90.0 90.0)
           (-90.0 90.0)
  end
  begin
     id 26 
     name rradius
     direction -1 -4.48967e-011 8.62438e-027   
     length 3.69401   
     axis 180 30 90   XYZ
    dof rx
    limits (-10.0 170.0)
  end
  begin
     id 27 
     name rwrist
     direction -1 -4.4897e-011 9.54866e-027   
     length 1.84701   
     axis -7.69462e-015 -90 -90   XYZ
    dof ry
    limits (-180.0 0.0)
  end
  begin
     id 28
     name rhand
     direction -1 -4.48982e-011 1.90973e-026   
     length 0.638113   
     axis -1.21857e-014 -90 -90   XYZ
    dof rx rz
    limits (-90.0 90.0)
           (-45.0 45.0)
  end
  begin
     id 29
     name rfingers
     direction -1 -4.48936e-011 3.81946e-026   
     length 0.514463   
     axis -2.43714e-014 -90 -90   XYZ
    dof rx
    limits (0.0 90.0)
  end
  begin
     id 30
     name rthumb
     direction -0.707107 -6.34942e-011 0.707107   
     length 0.738669   
     axis -90 -45 -2.85299e-015   XYZ
    dof rx rz
    limits (-45.0 45.0)
           (-45.0 45.0)
  end
:hierarchy
  begin
    root lhipjoint rhipjoint lowerback
    lhipjoint lfemur
    lfemur ltibia
    ltibia lfoot
    lfoot ltoes
    rhipjoint rfemur
    rfemur rtibia
    rtibia rfoot
    rfoot rtoes
    lowerback upperback
    upperback thorax
    thorax lowerneck lclavicle rclavicle
    lowerneck upperneck
    upperneck head
    lclavicle lhumerus
    lhumerus lradius
    lradius lwrist
    lwrist lhand lthumb
    lhand lfingers
    rclavicle rhumerus
    rhumerus rradius
    rradius rwrist
    rwrist rhand rthumb
    rhand rfingers
  end

#!OML:ASF F:\twosubjects\two\Thursday\Session 1\Rory.ASF
:FULLY-SPECIFIED
:DEGREES
80
root 23.8588 18.7837 3.63094 2.51546 -12.9735 1.80306
lowerback -0.926929 0.827576 -4.01715
upperback 0.346145 1.17791 -4.12305
thorax 0.882022 0.573408 -1.96412
lowerneck 2.42788 -14.8686 -14.5386
upperneck 11.4101 -22.9477 20.574
head 7.21733 -11.1588 7.00163
rclavicle -1.96797e-014 2.54444e-014
rhumerus -28.5498 6.83281 -95.6014
rradius 47.5575
rwrist 14.1066
rhand -27.3938 28.1568
rfingers 7.12502
rthumb -0.800433 -1.82145
lclavicle -1.96797e-014 2.54444e-014
lhumerus -53.8584 35.7228 45.1009
lradius 13.881
lwrist -48.8153
lhand -5.94191 31.9857
lfingers 7.12502
lthumb 19.8882 60.9881
rfemur 8.31746 9.77202 19.7342
rtibia 29.2807
rfoot 5.35166 4.77707
rtoes -11.8426
lfemur -20.1243 3.33948 -21.3518
ltibia 18.4156
lfoot -1.33405 0.247841
ltoes 6.00184
81
root 23.8647 18.7956 3.79513 2.38626 -13.1339 2.51116
lowerback -1.049 0.666264 -4.77448
upperback 0.292586 0.978554 -4.38623
thorax 0.887025 0.469484 -1.81579
lowerneck 1.95752 -14.7871 -14.1713
upperneck 11.8252 -22.7927 20.1402
head 7.30027 -11.0417 6.79461
rclavicle -2.24627e-014 4.77083e-015
rhumerus -29.1871 6.0388 -95.8395
rradius 45.9675
rwrist 14.5637
rhand -27.1209 27.9086
rfingers 7.12502
rthumb -0.536819 -2.07049
lclavicle -2.24627e-014 4.77083e-015
lhumerus -54.0763 35.6094 44.7409
lradius 13.8433
lwrist -47.4119
lhand -5.18806 31.9039
lfingers 7.12502
lthumb 20.6127 60.8295
rfemur 7.09625 9.62458 18.6573
rtibia 31.5337
rfoot 7.84426 4.79584
rtoes -8.45314
lfemur -19.6425 3.63554 -22.2856
ltibia 18.5906
lfoot -1.82172 -0.174628
ltoes 7.22622
82
root 23.875 18.8044 3.9648 2.13849 -13.4014 2.86472
lowerback -1.17545 0.698693 -5.00472
upperback 0.296375 1.03585 -4.53235
thorax 0.960692 0.495618 -1.83609
lowerneck 1.94594 -14.7069 -14.0878
upperneck 11.9319 -22.6573 19.9163
head 7.27119 -10.9782 6.73189
rclavicle 2.16675e-014 2.38542e-014
rhumerus -29.6147 4.55396 -95.7375
rradius 44.0081
rwrist 15.5913
rhand -27.0231 27.6055
rfingers 7.12502
rthumb -0.442407 -2.37374
lclavicle 2.16675e-014 2.38542e-014
lhumerus -53.9564 34.7435 45.5174
lradius 14.3359
lwrist -44.9221
lhand -8.71081 31.4953
lfingers 7.12502
lthumb 17.2248 60.7519
rfemur 6.03886 9.45393 17.9472
rtibia 33.7721
rfoot 10.2094 4.84874
rtoes -5.48354
lfemur -18.9982 4.14213 -22.8628
ltibia 18.8601
lfoot -2.51711 -0.373297
ltoes 6.48022
83
root 23.8844 18.8143 4.1242 2.16071 -13.6139 2.74215
lowerback -1.28765 0.774376 -4.78054
upperback 0.210568 1.13682 -4.51246
thorax 0.938671 0.548321 -1.93738
lowerneck 1.93742 -14.7165 -14.2794
upperneck 12.1793 -22.6752 19.7022
head 7.35015 -10.9933 6.68354
rclavicle -1.48592e-014 7.95139e-015
rhumerus -30.0987 2.76818 -95.3267
rradius 42.0632
rwrist 16.6279
rhand -26.9578 27.4658
rfingers 7.12502
rthumb -0.379336 -2.51358
lclavicle -1.48592e-014 7.95139e-015
lhumerus -53.8127 33.9134 46.2353
lradius 14.6353
lwrist -43.6851
lhand -8.94346 31.8926
lfingers 7.12502
lthumb 17.0009 61.1687
rfemur 4.70067 9.31356 17.8074
rtibia 36.0854
rfoot 12.405 4.88377
rtoes -3.45186
lfemur -18.572 4.62151 -22.905
ltibia 19.0959
lfoot -3.13676 -0.540634
ltoes 5.90862
84
root 23.8877 18.8267 4.27567 2.27996 -13.8066 2.70364
lowerback -1.29226 0.737757 -4.79649
upperback 0.00370204 1.07443 -4.49976
thorax 0.72768 0.521132 -1.91786
lowerneck 1.73848 -14.6953 -14.6091
upperneck 12.706 -22.6992 19.5584
head 7.58018 -10.9941 6.65887
rclavicle -1.28216e-014 -2.38542e-014
rhumerus -30.7327 1.50543 -95.0426
rradius 40.2839
rwrist 16.9663
rhand -26.402 26.7405
rfingers 7.12502
rthumb 0.157519 -3.23922
lclavicle -1.28216e-014 -2.38542e-014
lhumerus -53.9662 33.5549 46.0536
lradius 14.3379
lwrist -44.3435
lhand -6.95497 32.5361
lfingers 7.12502
lthumb 18.9141 61.6365
rfemur 3.12454 9.20326 17.5952
rtibia 38.5126
rfoot 14.611 5.23227
rtoes -3.74748
lfemur -18.2388 4.94542 -23.0031
ltibia 19.2323
lfoot -3.7065 -0.715155
ltoes 5.67721
